<svg width="20" height="20" viewBox="0 0 20 20" fill="none" xmlns="http://www.w3.org/2000/svg">
<path fill-rule="evenodd" clip-rule="evenodd" d="M3.57749 3.57739C3.25206 3.90283 3.25206 4.43046 3.57749 4.7559L8.82157 9.99998L3.57749 15.2441C3.25206 15.5695 3.25206 16.0971 3.57749 16.4226C3.90293 16.748 4.43057 16.748 4.756 16.4226L10.5893 10.5892C10.9148 10.2638 10.9148 9.73616 10.5893 9.41072L4.756 3.57739C4.43057 3.25195 3.90293 3.25195 3.57749 3.57739ZM10.6608 4.82739C10.3354 5.15283 10.3354 5.68046 10.6608 6.0059L14.6549 9.99998L10.6608 13.9941C10.3354 14.3195 10.3354 14.8471 10.6608 15.1726C10.9863 15.498 11.5139 15.498 11.8393 15.1726L16.4227 10.5892C16.7481 10.2638 16.7481 9.73616 16.4227 9.41072L11.8393 4.82739C11.5139 4.50195 10.9863 4.50195 10.6608 4.82739Z" fill="#C3A767"/>
</svg>
