<svg width="18" height="18" viewBox="0 0 18 18" fill="none" xmlns="http://www.w3.org/2000/svg">
<path fill-rule="evenodd" clip-rule="evenodd" d="M0.666748 9.00002C0.666748 13.6024 4.39771 17.3334 9.00008 17.3334C13.6025 17.3334 17.3334 13.6024 17.3334 9.00002C17.3334 4.39765 13.6025 0.666687 9.00008 0.666687C4.39771 0.666687 0.666748 4.39765 0.666748 9.00002ZM10.2502 11.9167H9.83342V8.58335C9.83342 8.35204 9.7402 8.14404 9.58854 7.99386C9.4378 7.84313 9.22979 7.75002 8.99761 7.75002H7.75255C7.28615 7.75002 6.91675 8.12312 6.91675 8.58335C6.91675 9.0468 7.29095 9.41669 7.75255 9.41669H8.16675V11.9167H7.74992C7.28651 11.9167 6.91675 12.2898 6.91675 12.75C6.91675 13.2135 7.28977 13.5834 7.74992 13.5834H10.2502C10.7137 13.5834 11.0834 13.2103 11.0834 12.75C11.0834 12.2866 10.7104 11.9167 10.2502 11.9167ZM9.00008 15.6667C12.682 15.6667 15.6667 12.6819 15.6667 9.00002C15.6667 5.31812 12.682 2.33335 9.00008 2.33335C5.31818 2.33335 2.33341 5.31812 2.33341 9.00002C2.33341 12.6819 5.31818 15.6667 9.00008 15.6667ZM7.75008 5.66669C7.75008 6.35704 8.30973 6.91669 9.00008 6.91669C9.69044 6.91669 10.2501 6.35704 10.2501 5.66669C10.2501 4.97633 9.69044 4.41669 9.00008 4.41669C8.30973 4.41669 7.75008 4.97633 7.75008 5.66669Z" fill="#C3A767"/>
</svg>
