<svg width="20" height="20" viewBox="0 0 20 20" fill="none" xmlns="http://www.w3.org/2000/svg">
<path fill-rule="evenodd" clip-rule="evenodd" d="M13.3214 15.2542H6.67792V13.9205C6.67792 12.118 8.12313 10.6539 9.91542 10.6072C9.94385 10.6079 9.97083 10.616 9.99927 10.616C10.0284 10.616 10.0554 10.6079 10.0839 10.6072C11.8761 10.6539 13.3214 12.118 13.3214 13.9205V15.2542ZM7.60833 6.76596C7.60833 5.44762 8.68094 4.37502 9.99927 4.37502C11.3183 4.37502 12.3909 5.44762 12.3909 6.76596C12.3909 8.04637 11.3774 9.08617 10.1123 9.14669C10.0744 9.14596 10.0379 9.14085 9.99927 9.14085C9.96135 9.14085 9.9249 9.14596 9.88698 9.14669C8.62187 9.08617 7.60833 8.04637 7.60833 6.76596ZM12.3705 9.77596C13.2638 9.07012 13.8493 7.99023 13.8493 6.76596C13.8493 4.64335 12.1219 2.91669 9.99927 2.91669C7.87667 2.91669 6.15 4.64335 6.15 6.76596C6.15 7.99023 6.73479 9.07012 7.62802 9.77596C6.19156 10.6014 5.21958 12.1479 5.21958 13.9205V15.9834C5.21958 16.3859 5.54625 16.7125 5.94875 16.7125H14.0505C14.453 16.7125 14.7797 16.3859 14.7797 15.9834V13.9205C14.7797 12.1479 13.8077 10.6014 12.3705 9.77596ZM16.8957 9.90794C17.541 9.26846 17.926 8.392 17.926 7.43752C17.926 5.79835 16.8119 4.39908 15.2157 4.03377C14.8212 3.94335 14.4326 4.18981 14.3429 4.5821C14.2525 4.9744 14.4982 5.36523 14.8905 5.45565C15.8188 5.66783 16.4677 6.48304 16.4677 7.43752C16.4677 8.27898 15.9624 9.022 15.18 9.32971C15.1661 9.33554 15.1574 9.34721 15.1443 9.35377C15.0969 9.37565 15.056 9.40554 15.0145 9.4369C14.9788 9.46387 14.9437 9.48794 14.9146 9.52002C14.884 9.55356 14.8621 9.59221 14.838 9.63158C14.811 9.6746 14.7855 9.71544 14.7687 9.76283C14.7636 9.77742 14.752 9.78762 14.7483 9.80221C14.7389 9.83283 14.7447 9.86273 14.7396 9.89262C14.7316 9.94221 14.725 9.9896 14.7272 10.0399C14.7294 10.0917 14.741 10.1391 14.7534 10.1887C14.7615 10.2178 14.7578 10.247 14.7695 10.2754C14.776 10.2929 14.7877 10.3046 14.7957 10.3214C14.8089 10.3484 14.8242 10.3717 14.8402 10.3972C14.8723 10.4482 14.9102 10.4935 14.9532 10.5336C14.9722 10.5518 14.9897 10.57 15.0108 10.5861C15.0808 10.6386 15.1559 10.6816 15.2391 10.7064C15.2398 10.7071 15.2405 10.7078 15.2412 10.7078C16.4487 11.0622 17.2917 12.1895 17.2917 13.4488V14.5462H16.8214C16.4189 14.5462 16.0922 14.8728 16.0922 15.2753C16.0922 15.6778 16.4189 16.0045 16.8214 16.0045H18.0208C18.4233 16.0045 18.75 15.6778 18.75 15.2753V13.4488C18.75 12.0189 18.0289 10.702 16.8957 9.90794ZM5.24583 10.1887C5.25823 10.1391 5.2699 10.0917 5.27208 10.0399C5.27427 9.9896 5.26771 9.94221 5.25969 9.89262C5.25458 9.86273 5.26042 9.83283 5.25167 9.80221C5.24729 9.78762 5.23635 9.77742 5.23052 9.76283C5.21375 9.71544 5.18823 9.6746 5.16125 9.63158C5.13719 9.59221 5.11604 9.55356 5.08542 9.52002C5.05552 9.48794 5.02052 9.46387 4.98479 9.4369C4.94323 9.40554 4.90313 9.37565 4.85573 9.35377C4.8426 9.34721 4.83312 9.33554 4.81927 9.32971C4.03687 9.022 3.53156 8.27898 3.53156 7.43752C3.53156 6.48304 4.17979 5.66783 5.10875 5.45565C5.50104 5.36523 5.74677 4.9744 5.65708 4.5821C5.5674 4.18981 5.17802 3.94335 4.78354 4.03377C3.1874 4.39908 2.07323 5.79835 2.07323 7.43752C2.07323 8.392 2.45823 9.26846 3.10354 9.90794C1.97042 10.702 1.25 12.0189 1.25 13.4488V15.2753C1.25 15.6778 1.57594 16.0045 1.97917 16.0045H3.17792C3.58042 16.0045 3.90708 15.6778 3.90708 15.2753C3.90708 14.8728 3.58042 14.5462 3.17792 14.5462H2.70833V13.4488C2.70833 12.1895 3.55052 11.0622 4.75729 10.7078C4.75875 10.7078 4.75948 10.7071 4.76021 10.7064C4.84333 10.6816 4.91917 10.6386 4.98844 10.5861C5.01031 10.57 5.02708 10.5518 5.04604 10.5336C5.08906 10.4935 5.12625 10.4482 5.15906 10.3972C5.17583 10.3717 5.19115 10.3484 5.20354 10.3214C5.21156 10.3046 5.22396 10.2929 5.23052 10.2754C5.24146 10.247 5.23854 10.2178 5.24583 10.1887Z" fill="#C3A767"/>
</svg>
