<svg width="20" height="20" viewBox="0 0 20 20" fill="none" xmlns="http://www.w3.org/2000/svg">
<path fill-rule="evenodd" clip-rule="evenodd" d="M10.8334 16.25H7.0837C6.39444 16.25 5.83341 15.6932 5.83341 15.003V12.9167C5.83341 12.4564 6.20651 12.0833 6.66675 12.0833C7.12698 12.0833 7.50008 12.4564 7.50008 12.9167V14.5833H10.8334V5.58883C10.8334 5.07432 11.1408 4.52061 11.5801 4.24899L13.7405 2.91302L7.50008 2.91667V4.58333C7.50008 5.04357 7.12698 5.41667 6.66675 5.41667C6.20651 5.41667 5.83341 5.04357 5.83341 4.58333V2.49699C5.83341 1.80999 6.39478 1.25 7.0837 1.25H16.2498C16.6521 1.25 17.0106 1.43965 17.2395 1.73479C17.261 1.76245 17.2768 1.79105 17.2881 1.8205C17.4203 1.9998 17.5001 2.23055 17.5001 2.49699V15.003C17.5001 15.5175 17.1927 16.0712 16.7534 16.3428L12.4566 18.9999C11.7039 19.4653 10.8334 18.9748 10.8334 18.0948V16.25ZM6.07926 7.68429C5.75285 7.35982 5.75127 6.83219 6.07573 6.50578C6.4002 6.17937 6.92783 6.17779 7.25424 6.50226L8.92091 8.15898C9.24732 8.48345 9.24889 9.01109 8.92442 9.3375L7.25775 11.0141C6.93328 11.3405 6.40565 11.3421 6.07925 11.0176C5.75284 10.6931 5.75128 10.1655 6.07574 9.8391L6.32826 9.58333H2.4967C2.039 9.58333 1.66675 9.21024 1.66675 8.75C1.66675 8.28655 2.03833 7.91667 2.4967 7.91667H6.31303L6.07926 7.68429ZM15.8334 14.9926L12.4959 17.0247V5.66564L15.8334 3.59243V14.9926Z" fill="#C3A767"/>
</svg>
