<svg width="114" height="48" viewBox="0 0 114 48" fill="none" xmlns="http://www.w3.org/2000/svg">
<path d="M55.4586 30.4681H57.3186L57.8241 28.2854H61.8071C63.5964 28.2854 64.2939 27.7247 64.6376 26.2428L64.7893 25.572C64.8702 25.2115 64.9106 24.9011 64.9106 24.6408C64.9106 23.6896 64.3344 23.3592 62.9292 23.3592H57.0861L55.4586 30.4681ZM58.552 25.0914H62.535C62.8382 25.0914 62.9696 25.1715 62.9696 25.3917C62.9696 25.4418 62.9595 25.5019 62.9494 25.572L62.7776 26.2829C62.6967 26.6033 62.5248 26.7434 62.1508 26.7434H58.1678L58.552 25.0914ZM21.7649 24.3605L0 45.2466L38.2023 28.2653L38.4854 26.1227L27.2238 21.2566H39.1324L39.6479 17.3917H8.90613L31.1664 27.1439L18.7423 32.6708L25.6266 26.0626L21.7649 24.3605ZM111.322 31.3392L108.269 34.4531L106.621 31.3392H104.498L106.954 35.9349L106.378 38.4581H108.228L108.804 35.9349L113.455 31.3392H111.322ZM45.5719 21.2666H54.0332L62.6462 17.3917H46.0874L45.5719 21.2666ZM77.2235 28.2553H79.3161L81.1458 30.4681H83.7034L81.7119 28.2153C83.2586 28.1752 84.0775 27.7747 84.4515 26.1227L84.5728 25.582C84.6537 25.2315 84.6941 24.9212 84.6941 24.6508C84.6941 23.7096 84.1381 23.3492 82.8442 23.3492H76.4855L74.858 30.4681H76.718L77.2235 28.2553ZM77.9615 25.0914H82.3791C82.6622 25.0914 82.7532 25.1915 82.7532 25.3917C82.7532 25.4718 82.733 25.582 82.7127 25.7021L82.5813 26.2929C82.4903 26.6733 82.3185 26.8235 81.9849 26.8235H77.5672L77.9615 25.0914ZM95.0762 27.5945H98.2605C98.6952 27.5945 98.857 27.6946 98.857 27.985C98.857 28.4155 98.5133 28.7359 97.9775 28.7359H92.6803L92.1647 30.4581H97.7349C99.5343 30.4581 100.323 29.8874 100.687 28.3554L100.757 28.0751C100.798 27.8748 100.828 27.6946 100.828 27.5244C100.828 26.6533 100.191 26.2328 98.5739 26.2328H95.4906C95.0964 26.2328 94.9346 26.1126 94.9346 25.8323C94.9346 25.4418 95.2682 25.0814 95.7535 25.0814H100.95L101.576 23.3392H96.1376C94.2472 23.3392 93.4688 23.9299 93.1352 25.3817L93.0746 25.622C93.0139 25.8723 92.9836 26.1026 92.9836 26.2929C92.9937 27.194 93.5699 27.5945 95.0762 27.5945ZM86.7968 30.4681H88.6569L89.8902 25.0914H92.559L92.9533 23.3492H85.7354L85.3411 25.0914H88.02L86.7968 30.4681ZM82.4297 31.3392H75.8689L74.2413 38.4481H80.8021C82.6824 38.4481 83.3597 37.8874 83.7641 36.1452L84.3403 33.6421C84.4313 33.2616 84.4717 32.9312 84.4717 32.6508C84.4818 31.6796 83.8854 31.3392 82.4297 31.3392ZM82.4903 33.6521L81.9141 36.1552C81.813 36.5857 81.6108 36.7259 81.1761 36.7259H76.4855L77.3347 33.0713H82.0253C82.3589 33.0713 82.5308 33.1514 82.5308 33.4218C82.5308 33.4919 82.5207 33.562 82.4903 33.6521ZM30.2566 16.1702H35.9177L41.8113 10.5031L37.8182 40.4806L40.9015 48L47.1691 0L30.2566 16.1702ZM87.5651 33.0713H93.1959L93.5901 31.3292H86.0993L84.4616 38.4481H91.9525L92.3467 36.7259H86.7159L86.999 35.5444H92.468L92.7713 34.2428H87.3023L87.5651 33.0713ZM62.6462 36.3054C62.4743 36.5257 62.2418 36.7259 61.7464 36.7259H57.4501C57.0861 36.7259 56.9648 36.6258 56.9648 36.3955C56.9648 36.3354 56.9749 36.2553 56.9952 36.1552L57.5714 33.6421C57.6725 33.2215 57.8747 33.0713 58.2992 33.0713H62.5451C63.0303 33.0713 63.1819 33.2716 63.2527 33.4919L64.6882 32.3705C64.5871 31.98 64.2131 31.3292 63.0505 31.3292H58.6733C56.8031 31.3292 56.1359 31.8598 55.7214 33.632L55.1452 36.1352C55.0542 36.5257 55.0138 36.8561 55.0138 37.1364C55.0138 38.1176 55.6001 38.438 57.0558 38.438H61.4634C62.6259 38.438 63.3032 37.7872 63.5661 37.3967L62.6462 36.3054ZM74.8478 24.6909C74.8478 23.6996 74.2312 23.3592 72.7957 23.3592H68.6914C66.7909 23.3592 66.1338 23.9099 65.7294 25.6621L65.1532 28.1652C65.0622 28.5557 65.0117 28.8861 65.0117 29.1665C65.0117 30.1377 65.598 30.4681 67.0739 30.4681H71.1782C73.0181 30.4681 73.7358 29.9074 74.1402 28.1652L74.7164 25.6621C74.8074 25.2916 74.8478 24.9612 74.8478 24.6909ZM72.8665 25.6721L72.2902 28.1752C72.1891 28.6058 71.9971 28.7459 71.5523 28.7459H67.4581C67.1144 28.7459 66.9728 28.6658 66.9728 28.4155C66.9728 28.3554 66.983 28.2753 67.0032 28.1752L67.5794 25.6721C67.6805 25.2315 67.8827 25.0914 68.3073 25.0914H72.4014C72.7452 25.0914 72.9069 25.1715 72.9069 25.4318C72.9069 25.5119 72.8867 25.582 72.8665 25.6721ZM69.1261 31.3392L63.3841 38.4481H65.507L66.6999 36.9262H70.9053L71.4108 38.4481H73.5236L71.0569 31.3392H69.1261ZM67.731 35.5544L69.7023 33.0513L70.5515 35.5544H67.731ZM98.0483 36.6959L96.7037 31.3392H94.6819L93.0544 38.4481H94.7628L95.6827 34.393L96.7745 38.4481H98.5032L101.445 34.393L100.525 38.4481H102.213L103.841 31.3292H101.869L98.0483 36.6959ZM52.7696 26.2528H49.6863C49.292 26.2528 49.1303 26.1327 49.1303 25.8523C49.1303 25.4618 49.4639 25.1014 49.9592 25.1014H55.1553L55.7821 23.3592H50.3434C48.453 23.3592 47.6746 23.9499 47.341 25.4018L47.2803 25.6421C47.2197 25.8924 47.1893 26.1227 47.1893 26.3129C47.1893 27.194 47.7655 27.5945 49.2718 27.5945H52.4562C52.8909 27.5945 53.0526 27.6946 53.0526 27.985C53.0526 28.4155 52.7089 28.7359 52.1731 28.7359H46.8759L46.3604 30.4581H51.9305C53.7299 30.4581 54.5184 29.8874 54.8824 28.3554L54.9531 28.0751C54.9936 27.8748 55.0239 27.6946 55.0239 27.5244C55.0239 26.6733 54.387 26.2528 52.7696 26.2528ZM49.9491 31.3392L44.2172 38.4481H46.3402L47.533 36.9262H51.7384L52.2439 38.4481H54.3567L51.88 31.3392H49.9491ZM48.5541 35.5544L50.5253 33.0513L51.3745 35.5544H48.5541Z" fill="white"/>
</svg>
