<svg width="14" height="18" viewBox="0 0 14 18" fill="none" xmlns="http://www.w3.org/2000/svg">
<path fill-rule="evenodd" clip-rule="evenodd" d="M10.7469 5.15189L11.7058 4.19299C12.031 3.86786 12.5592 3.86895 12.8832 4.19293L13.4737 4.78342C13.7988 5.10852 13.8011 5.63331 13.4736 5.96076L12.5147 6.91966C13.2417 7.98751 13.6666 9.27747 13.6666 10.6667C13.6666 14.3486 10.6818 17.3334 6.99992 17.3334C3.31802 17.3334 0.333252 14.3486 0.333252 10.6667C0.333252 7.26701 2.87799 4.46168 6.16658 4.0516V3.16669H5.33681C4.87461 3.16669 4.49992 2.79241 4.49992 2.33422V1.49915C4.49992 1.03939 4.87573 0.666687 5.33681 0.666687H8.66303C9.12523 0.666687 9.49992 1.04096 9.49992 1.49915V2.33422C9.49992 2.79398 9.12411 3.16669 8.66303 3.16669H7.83325V4.0516C8.90407 4.18513 9.89603 4.57262 10.7469 5.15189ZM6.99992 15.6667C9.76134 15.6667 11.9999 13.4281 11.9999 10.6667C11.9999 7.90526 9.76134 5.66669 6.99992 5.66669C4.23849 5.66669 1.99992 7.90526 1.99992 10.6667C1.99992 13.4281 4.23849 15.6667 6.99992 15.6667ZM6.99992 6.50002C6.53647 6.50002 6.16659 6.87471 6.16659 7.33691V10.6631C6.16659 11.1242 6.53968 11.5 6.99992 11.5C7.46337 11.5 7.83325 11.1253 7.83325 10.6631V7.33691C7.83325 6.87583 7.46016 6.50002 6.99992 6.50002Z" fill="white"/>
</svg>
