<svg width="34" height="42" viewBox="0 0 34 42" fill="none" xmlns="http://www.w3.org/2000/svg">
<path fill-rule="evenodd" clip-rule="evenodd" d="M26.3675 11.3797L28.7647 8.98244C29.5776 8.16962 30.8981 8.17233 31.7081 8.9823L33.1843 10.4585C33.997 11.2713 34.0028 12.5832 33.1842 13.4019L30.7869 15.7991C32.6043 18.4687 33.6666 21.6937 33.6666 25.1667C33.6666 34.3714 26.2047 41.8334 16.9999 41.8334C7.79517 41.8334 0.333252 34.3714 0.333252 25.1667C0.333252 16.6675 6.6951 9.65417 14.9166 8.62897V6.41669H12.8421C11.6866 6.41669 10.7499 5.481 10.7499 4.33553V2.24785C10.7499 1.09845 11.6895 0.166687 12.8421 0.166687H21.1577C22.3132 0.166687 23.2499 1.10238 23.2499 2.24785V4.33553C23.2499 5.48492 22.3104 6.41669 21.1577 6.41669H19.0833V8.62897C21.7603 8.96279 24.2402 9.93152 26.3675 11.3797ZM16.9999 37.6667C23.9035 37.6667 29.4999 32.0702 29.4999 25.1667C29.4999 18.2631 23.9035 12.6667 16.9999 12.6667C10.0964 12.6667 4.49992 18.2631 4.49992 25.1667C4.49992 32.0702 10.0964 37.6667 16.9999 37.6667ZM16.9999 14.75C15.8413 14.75 14.9166 15.6867 14.9166 16.8422V25.1578C14.9166 26.3105 15.8493 27.25 16.9999 27.25C18.1585 27.25 19.0833 26.3133 19.0833 25.1578V16.8422C19.0833 15.6896 18.1505 14.75 16.9999 14.75Z" fill="white"/>
</svg>
