<svg width="44" height="35" viewBox="0 0 44 35" fill="none" xmlns="http://www.w3.org/2000/svg">
<path fill-rule="evenodd" clip-rule="evenodd" d="M30.3034 31.1354H13.6948V27.8013C13.6948 23.2951 17.3078 19.6347 21.7885 19.518C21.8596 19.5198 21.9271 19.5399 21.9982 19.5399C22.0711 19.5399 22.1385 19.5198 22.2096 19.518C26.6904 19.6347 30.3034 23.2951 30.3034 27.8013V31.1354ZM16.0208 9.91486C16.0208 6.61903 18.7023 3.93752 21.9982 3.93752C25.2958 3.93752 27.9773 6.61903 27.9773 9.91486C27.9773 13.1159 25.4435 15.7154 22.2807 15.8667C22.1859 15.8649 22.0948 15.8521 21.9982 15.8521C21.9034 15.8521 21.8122 15.8649 21.7174 15.8667C18.5547 15.7154 16.0208 13.1159 16.0208 9.91486ZM27.9263 17.4399C30.1594 15.6753 31.6232 12.9755 31.6232 9.91486C31.6232 4.60835 27.3047 0.291687 21.9982 0.291687C16.6917 0.291687 12.375 4.60835 12.375 9.91486C12.375 12.9755 13.837 15.6753 16.0701 17.4399C12.4789 19.5034 10.049 23.3698 10.049 27.8013V32.9584C10.049 33.9646 10.8656 34.7813 11.8719 34.7813H32.1263C33.1325 34.7813 33.9492 33.9646 33.9492 32.9584V27.8013C33.9492 23.3698 31.5193 19.5034 27.9263 17.4399ZM39.2393 17.7698C40.8526 16.1711 41.8151 13.98 41.8151 11.5938C41.8151 7.49585 39.0297 3.99768 35.0393 3.08439C34.0531 2.85835 33.0815 3.4745 32.8573 4.45523C32.6312 5.43596 33.2456 6.41304 34.2263 6.63908C36.5469 7.16955 38.1693 9.20757 38.1693 11.5938C38.1693 13.6974 36.906 15.555 34.95 16.3242C34.9154 16.3388 34.8935 16.368 34.8607 16.3844C34.7422 16.4391 34.6401 16.5138 34.5362 16.5922C34.4469 16.6597 34.3594 16.7198 34.2865 16.8C34.2099 16.8839 34.1552 16.9805 34.0951 17.0789C34.0276 17.1865 33.9638 17.2886 33.9219 17.4071C33.9091 17.4435 33.8799 17.469 33.8708 17.5055C33.8471 17.5821 33.8617 17.6568 33.849 17.7315C33.8289 17.8555 33.8125 17.974 33.818 18.0998C33.8234 18.2292 33.8526 18.3477 33.8836 18.4716C33.9036 18.5445 33.8945 18.6175 33.9237 18.6886C33.9401 18.7323 33.9693 18.7615 33.9893 18.8034C34.0221 18.8709 34.0604 18.9292 34.1005 18.993C34.1807 19.1206 34.2755 19.2336 34.3831 19.3339C34.4305 19.3794 34.4742 19.425 34.5271 19.4651C34.7021 19.5964 34.8898 19.7039 35.0977 19.7659C35.0995 19.7677 35.1013 19.7696 35.1031 19.7696C38.1219 20.6555 40.2292 23.4737 40.2292 26.6219V29.3654H39.0534C38.0471 29.3654 37.2305 30.1821 37.2305 31.1883C37.2305 32.1946 38.0471 33.0112 39.0534 33.0112H42.0521C43.0583 33.0112 43.875 32.1946 43.875 31.1883V26.6219C43.875 23.0472 42.0721 19.755 39.2393 17.7698ZM10.1146 18.4716C10.1456 18.3477 10.1747 18.2292 10.1802 18.0998C10.1857 17.974 10.1693 17.8555 10.1492 17.7315C10.1365 17.6568 10.151 17.5821 10.1292 17.5055C10.1182 17.469 10.0909 17.4435 10.0763 17.4071C10.0344 17.2886 9.97057 17.1865 9.90312 17.0789C9.84297 16.9805 9.7901 16.8839 9.71354 16.8C9.6388 16.7198 9.5513 16.6597 9.46198 16.5922C9.35807 16.5138 9.25781 16.4391 9.13932 16.3844C9.10651 16.368 9.08281 16.3388 9.04818 16.3242C7.09219 15.555 5.82891 13.6974 5.82891 11.5938C5.82891 9.20757 7.44948 7.16955 9.77187 6.63908C10.7526 6.41304 11.3669 5.43596 11.1427 4.45523C10.9185 3.4745 9.94505 2.85835 8.95885 3.08439C4.96849 3.99768 2.18307 7.49585 2.18307 11.5938C2.18307 13.98 3.14557 16.1711 4.75885 17.7698C1.92604 19.755 0.125 23.0472 0.125 26.6219V31.1883C0.125 32.1946 0.939844 33.0112 1.94792 33.0112H4.94479C5.95104 33.0112 6.76771 32.1946 6.76771 31.1883C6.76771 30.1821 5.95104 29.3654 4.94479 29.3654H3.77083V26.6219C3.77083 23.4737 5.8763 20.6555 8.89323 19.7696C8.89687 19.7696 8.8987 19.7677 8.90052 19.7659C9.10833 19.7039 9.29792 19.5964 9.47109 19.4651C9.52578 19.425 9.56771 19.3794 9.6151 19.3339C9.72266 19.2336 9.81563 19.1206 9.89766 18.993C9.93958 18.9292 9.97786 18.8709 10.0089 18.8034C10.0289 18.7615 10.0599 18.7323 10.0763 18.6886C10.1036 18.6175 10.0964 18.5445 10.1146 18.4716Z" fill="white"/>
</svg>
